{"title":"The Kings Speech 2010 XViD BRRip DTRG - SAFCuk009","uid":6268311,"size":1486445222,"categoryP":"video","categoryS":"movies","magnet":"?xt=urn:btih:b140f4e9977fba6b9c6a4375b86e099b1dee1e7a&amp;dn=The+Kings+Speech+2010+XViD+BRRip+DTRG+-+SAFCuk009&amp;tr=udp%3A%2F%2Ftracker.openbittorrent.com%3A80&amp;tr=udp%3A%2F%2Fopen.demonii.com%3A1337&amp;tr=udp%3A%2F%2Ftracker.coppersurfer.tk%3A6969&amp;tr=udp%3A%2F%2Fexodus.desync.com%3A6969","seeders":1,"leechers":0,"uploader":"SAFCukO09","files":3,"time":1300982135,"description":"Format                           : AVI\nFormat/Info                      : Audio Video Interleave\nFile size                        : 1.38 GiB\nDuration                         : 1h 58mn\nOverall bit rate                 : 1 673 Kbps\nWriting application              : VirtualDubMod 1.5.10.3 | www.virtualdub-fr.org || (build 2550/release)\nWriting library                  : VirtualDub build 32839/release\n\nVideo\nID                               : 0\nFormat                           : MPEG-4 Visual\nFormat profile                   : Advanced Simple@L5\nFormat settings, BVOP            : Yes\nFormat settings, QPel            : No\nFormat settings, GMC             : No warppoints\nFormat settings, Matrix          : Custom\nCodec ID                         : XVID\nCodec ID/Hint                    : XviD\nDuration                         : 1h 58mn\nBit rate                         : 1 216 Kbps\nWidth                            : 720 pixels\nHeight                           : 400 pixels\nDisplay aspect ratio             : 16:9\nFrame rate                       : 23.976 fps\nColor space                      : YUV\nChroma subsampling               : 4:2:0\nBit depth                        : 8 bits\nScan type                        : Progressive\nBits/(Pixel*Frame)               : 0.176\nStream size                      : 1.01 GiB (73%)\nWriting library                  : XviD 1.2.1 (UTC 2008-12-04)\n\nAudio\nID                               : 1\nFormat                           : AC-3\nFormat/Info                      : Audio Coding 3\nMode extension                   : CM (complete main)\nCodec ID                         : 2000\nDuration                         : 1h 58mn\nBit rate mode                    : Constant\nBit rate                         : 448 Kbps\nChannel(s)                       : 6 channels\nChannel positions                : Front: L C R, Side: L R, LFE\nSampling rate                    : 48.0 KHz\nBit depth                        : 16 bits\nStream size                      : 380 MiB (27%)\nAlignment                        : Split accross interleaves\nInterleave, duration             : 42 ms (1.00 video frame)\nInterleave, preload duration     : 500 ms\n\n\n\n &lt;a href=&quot;\nhttp://www.imdb.com/title/tt1504320/&quot; rel=&quot;nofollow&quot; target=&quot;_NEW&quot;&gt;\nhttp://www.imdb.com/title/tt1504320/&lt;/a&gt;\n\n\n\n\n\n\n\nStoryline\n\nTells the story of the man who became King George VI, the father of Queen Elizabeth II. After his brother abdicates, George ('Bertie') reluctantly assumes the throne. Plagued by a dreaded stammer and considered unfit to be king, Bertie engages the help of an unorthodox speech therapist named Lionel Logue. Through a set of unexpected techniques, and as a result of an unlikely friendship, Bertie is able to find his voice and boldly lead the country through war.\n\n\n\n\n\n &lt;a href=&quot;\nhttp://img826.imageshack.us/img826/7384/vlcsnap2011032405h55m35.png&quot; rel=&quot;nofollow&quot; target=&quot;_NEW&quot;&gt;\nhttp://img826.imageshack.us/img826/7384/vlcsnap2011032405h55m35.png&lt;/a&gt;\n &lt;a href=&quot;\nhttp://img101.imageshack.us/img101/1849/vlcsnap2011032405h56m55.png&quot; rel=&quot;nofollow&quot; target=&quot;_NEW&quot;&gt;\nhttp://img101.imageshack.us/img101/1849/vlcsnap2011032405h56m55.png&lt;/a&gt;\n &lt;a href=&quot;\nhttp://img863.imageshack.us/img863/1522/vlcsnap2011032405h55m08.png&quot; rel=&quot;nofollow&quot; target=&quot;_NEW&quot;&gt;\nhttp://img863.imageshack.us/img863/1522/vlcsnap2011032405h55m08.png&lt;/a&gt;\n &lt;a href=&quot;\nhttp://img31.imageshack.us/img31/139/vlcsnap2011032405h54m47.png&quot; rel=&quot;nofollow&quot; target=&quot;_NEW&quot;&gt;\nhttp://img31.imageshack.us/img31/139/vlcsnap2011032405h54m47.png&lt;/a&gt;\n &lt;a href=&quot;\nhttp://img233.imageshack.us/img233/3268/vlcsnap2011032405h54m35.png&quot; rel=&quot;nofollow&quot; target=&quot;_NEW&quot;&gt;\nhttp://img233.imageshack.us/img233/3268/vlcsnap2011032405h54m35.png&lt;/a&gt;\n\n\n\nSource...............: 720p BluRay X264-AMIABLE ................... Thanks \n\n\n\nGreetz to Imagine ,Flawl3ss,DiLLoN,BDK,NOiR,TOXiCiNK,THC,Ez,Rx,\n\n\n\n","torrent":{"xt":"urn:btih:b140f4e9977fba6b9c6a4375b86e099b1dee1e7a","amp;dn":"The+Kings+Speech+2010+XViD+BRRip+DTRG+-+SAFCuk009","amp;tr":["udp%3A%2F%2Ftracker.openbittorrent.com%3A80","udp%3A%2F%2Fopen.demonii.com%3A1337","udp%3A%2F%2Ftracker.coppersurfer.tk%3A6969","udp%3A%2F%2Fexodus.desync.com%3A6969"],"infoHash":"b140f4e9977fba6b9c6a4375b86e099b1dee1e7a","infoHashBuffer":{"type":"Buffer","data":[177,64,244,233,151,127,186,107,156,106,67,117,184,110,9,155,29,238,30,122]},"announce":[],"urlList":[]}}